<svg width="34" height="34" viewBox="0 0 34 34" fill="none" xmlns="http://www.w3.org/2000/svg">
<g clip-path="url(#clip0_158_643)">
<path d="M30.8126 16.9999C30.8082 20.3757 29.5696 23.6335 27.3301 26.1595C25.0905 28.6855 22.0046 30.3054 18.6536 30.7141C18.579 30.7225 18.5034 30.7151 18.4319 30.6922C18.3604 30.6693 18.2945 30.6315 18.2387 30.5813C18.1828 30.5311 18.1382 30.4696 18.1079 30.401C18.0775 30.3323 18.0621 30.2579 18.0626 30.1828V20.1874H21.2501C21.3957 20.1877 21.5399 20.1581 21.6736 20.1003C21.8073 20.0426 21.9277 19.958 22.0274 19.8517C22.127 19.7455 22.2038 19.6199 22.2528 19.4827C22.3019 19.3456 22.3222 19.1998 22.3126 19.0545C22.2891 18.7813 22.163 18.5271 21.9598 18.343C21.7565 18.1589 21.4911 18.0587 21.2169 18.0624H18.0626V14.8749C18.0626 14.3113 18.2864 13.7708 18.685 13.3723C19.0835 12.9738 19.624 12.7499 20.1876 12.7499H22.3126C22.4582 12.7502 22.6024 12.7206 22.7361 12.6628C22.8698 12.6051 22.9902 12.5205 23.0899 12.4142C23.1895 12.308 23.2663 12.1824 23.3153 12.0452C23.3644 11.9081 23.3847 11.7623 23.3751 11.617C23.3516 11.3433 23.2251 11.0887 23.0213 10.9046C22.8174 10.7205 22.5514 10.6205 22.2767 10.6249H20.1876C19.0604 10.6249 17.9794 11.0726 17.1824 11.8697C16.3853 12.6667 15.9376 13.7477 15.9376 14.8749V18.0624H12.7501C12.6044 18.0621 12.4602 18.0917 12.3265 18.1494C12.1928 18.2072 12.0724 18.2918 11.9727 18.398C11.8731 18.5043 11.7964 18.6299 11.7473 18.767C11.6982 18.9042 11.6779 19.0499 11.6876 19.1953C11.7111 19.4689 11.8375 19.7235 12.0413 19.9077C12.2452 20.0918 12.5113 20.1917 12.7859 20.1874H15.9376V30.1855C15.938 30.2605 15.9226 30.3347 15.8923 30.4033C15.8621 30.4718 15.8176 30.5332 15.7619 30.5834C15.7062 30.6336 15.6405 30.6714 15.5692 30.6944C15.4978 30.7174 15.4224 30.725 15.3479 30.7167C11.9072 30.2977 8.74917 28.6022 6.49894 25.9659C4.24871 23.3295 3.07027 19.9444 3.19686 16.4806C3.46248 9.3087 9.2717 3.47823 16.4489 3.19933C18.3071 3.12735 20.1607 3.43089 21.8988 4.09178C23.637 4.75267 25.224 5.75735 26.5649 7.04571C27.9058 8.33406 28.9731 9.87964 29.703 11.59C30.4328 13.3003 30.8102 15.1403 30.8126 16.9999Z" fill="white" style="fill:white;fill-opacity:1;"/>
</g>
<defs>
<clipPath id="clip0_158_643">
<rect width="34" height="34" fill="white" style="fill:white;fill-opacity:1;"/>
</clipPath>
</defs>
</svg>
