<svg width="34" height="34" viewBox="0 0 34 34" fill="none" xmlns="http://www.w3.org/2000/svg">
<g clip-path="url(#clip0_158_649)">
<path d="M17 3.1875C14.2682 3.1875 11.5976 3.99759 9.32619 5.51533C7.05474 7.03306 5.28436 9.19028 4.23892 11.7142C3.19348 14.2381 2.91995 17.0153 3.45291 19.6947C3.98587 22.374 5.30138 24.8352 7.23309 26.7669C9.16481 28.6986 11.626 30.0141 14.3053 30.5471C16.9847 31.0801 19.7619 30.8065 22.2858 29.7611C24.8097 28.7157 26.9669 26.9453 28.4847 24.6738C30.0024 22.4024 30.8125 19.7319 30.8125 17C30.8125 13.3367 29.3573 9.82343 26.7669 7.23309C24.1766 4.64274 20.6633 3.1875 17 3.1875ZM17 27.625C15.2778 27.6248 13.5814 27.206 12.057 26.4046C10.5326 25.6032 9.22588 24.4433 8.24933 23.0247C7.27278 21.6061 6.65571 19.9714 6.45125 18.2614C6.2468 16.5513 6.46109 14.8172 7.07568 13.2084C7.69027 11.5996 8.68672 10.1642 9.97923 9.02606C11.2717 7.88788 12.8215 7.08094 14.4952 6.67475C16.1688 6.26856 17.9161 6.27529 19.5865 6.69436C21.257 7.11343 22.8005 7.93228 24.0842 9.08039C24.289 9.26966 24.4112 9.53186 24.4244 9.81042C24.4376 10.089 24.3407 10.3615 24.1547 10.5693C23.9688 10.7771 23.7085 10.9034 23.4302 10.9211C23.1519 10.9387 22.8778 10.8462 22.6671 10.6635C21.2506 9.3965 19.4503 8.64076 17.5538 8.51703C15.6573 8.39329 13.7741 8.9087 12.2049 9.98092C10.6357 11.0531 9.47118 12.6203 8.89725 14.4321C8.32331 16.2439 8.37312 18.1957 9.03872 19.9759C9.70432 21.756 10.9473 23.2617 12.5691 24.2525C14.1909 25.2433 16.098 25.662 17.9857 25.4417C19.8734 25.2214 21.6328 24.3748 22.9829 23.0372C24.333 21.6996 25.1958 19.9481 25.4336 18.0625H17C16.7182 18.0625 16.448 17.9506 16.2487 17.7513C16.0494 17.552 15.9375 17.2818 15.9375 17C15.9375 16.7182 16.0494 16.448 16.2487 16.2487C16.448 16.0494 16.7182 15.9375 17 15.9375H26.5625C26.8443 15.9375 27.1145 16.0494 27.3138 16.2487C27.5131 16.448 27.625 16.7182 27.625 17C27.6218 19.817 26.5014 22.5176 24.5095 24.5095C22.5176 26.5014 19.817 27.6218 17 27.625Z" fill="white" style="fill:white;fill-opacity:1;"/>
</g>
<defs>
<clipPath id="clip0_158_649">
<rect width="34" height="34" fill="white" style="fill:white;fill-opacity:1;"/>
</clipPath>
</defs>
</svg>
