<svg width="79" height="56" viewBox="0 0 79 56" fill="none" xmlns="http://www.w3.org/2000/svg">
<rect width="79" height="55.8448" rx="14.25" fill="white" style="fill:white;fill-opacity:1;"/>
<rect x="0.7125" y="0.7125" width="77.575" height="54.4198" rx="13.5375" stroke="black" stroke-opacity="0.13" style="stroke:black;stroke-opacity:0.13;" stroke-width="1.425"/>
<g clip-path="url(#clip0_352_489)">
<path d="M55.6927 17.3814C51.7892 15.1281 46.7978 16.467 44.542 20.3706L38.8559 30.2207C37.2105 33.0651 39.3287 34.059 41.6906 35.4752L47.162 38.6331C49.015 39.7019 51.3816 39.0675 52.4503 37.217L58.2958 27.0941C60.2594 23.6925 59.0943 19.3452 55.6927 17.3814Z" fill="#EA4335" style="fill:#EA4335;fill:color(display-p3 0.9176 0.2627 0.2078);fill-opacity:1;"/>
<path d="M49.2581 21.4585L43.7867 18.3005C40.7663 16.6238 39.0558 16.5128 37.8158 18.4838L29.746 32.4595C27.4927 36.3604 28.8339 41.3495 32.735 43.5979C36.1366 45.5617 40.484 44.3965 42.4478 40.9949L50.672 26.7491C51.7455 24.8963 51.1111 22.5272 49.2581 21.4585Z" fill="#FBBC04" style="fill:#FBBC04;fill:color(display-p3 0.9843 0.7373 0.0157);fill-opacity:1;"/>
<path d="M50.3122 14.2742L46.4691 12.0544C42.2183 9.60103 36.7829 11.0557 34.3294 15.3065L27.0123 27.9793C25.9315 29.8491 26.5732 32.2423 28.443 33.3205L32.7468 35.8054C34.8722 37.0335 37.5886 36.3048 38.8167 34.1795L47.1759 19.702C48.9081 16.7034 52.7416 15.6757 55.7402 17.4079L50.3122 14.2742Z" fill="#34A853" style="fill:#34A853;fill:color(display-p3 0.2039 0.6588 0.3255);fill-opacity:1;"/>
<path d="M35.3689 18.9326L31.2146 16.5394C29.3618 15.473 26.9952 16.105 25.9265 17.9531L20.942 26.5657C18.4887 30.8044 19.9434 36.2276 24.1942 38.674L27.3569 40.4954L31.193 42.7052L32.8576 43.6628C29.9023 41.6847 28.9638 37.721 30.7706 34.5992L32.0614 32.37L36.7874 24.2037C37.8538 22.3605 37.2194 19.999 35.3689 18.9326Z" fill="#4285F4" style="fill:#4285F4;fill:color(display-p3 0.2588 0.5216 0.9569);fill-opacity:1;"/>
</g>
<defs>
<clipPath id="clip0_352_489">
<rect width="39.5" height="33.6894" fill="white" style="fill:white;fill-opacity:1;" transform="translate(19.75 10.8625)"/>
</clipPath>
</defs>
</svg>
