<svg width="34" height="34" viewBox="0 0 34 34" fill="none" xmlns="http://www.w3.org/2000/svg">
<g clip-path="url(#clip0_158_640)">
<path d="M21.25 17C21.25 17.8406 21.0007 18.6623 20.5337 19.3612C20.0667 20.0601 19.403 20.6048 18.6264 20.9265C17.8498 21.2482 16.9953 21.3323 16.1709 21.1683C15.3464 21.0044 14.5892 20.5996 13.9948 20.0052C13.4004 19.4108 12.9956 18.6536 12.8317 17.8291C12.6677 17.0047 12.7518 16.1502 13.0735 15.3736C13.3952 14.597 13.9399 13.9333 14.6388 13.4663C15.3377 12.9993 16.1594 12.75 17 12.75C18.1272 12.75 19.2082 13.1978 20.0052 13.9948C20.8022 14.7918 21.25 15.8728 21.25 17ZM30.8125 10.625V23.375C30.8104 25.3469 30.0261 27.2374 28.6318 28.6318C27.2374 30.0261 25.3469 30.8104 23.375 30.8125H10.625C8.6531 30.8104 6.76257 30.0261 5.36822 28.6318C3.97388 27.2374 3.18961 25.3469 3.1875 23.375V10.625C3.18961 8.6531 3.97388 6.76257 5.36822 5.36822C6.76257 3.97388 8.6531 3.18961 10.625 3.1875H23.375C25.3469 3.18961 27.2374 3.97388 28.6318 5.36822C30.0261 6.76257 30.8104 8.6531 30.8125 10.625ZM23.375 17C23.375 15.7391 23.0011 14.5066 22.3006 13.4582C21.6001 12.4099 20.6045 11.5928 19.4396 11.1103C18.2747 10.6278 16.9929 10.5015 15.7563 10.7475C14.5197 10.9935 13.3838 11.6006 12.4922 12.4922C11.6006 13.3838 10.9935 14.5197 10.7475 15.7563C10.5015 16.9929 10.6278 18.2747 11.1103 19.4396C11.5928 20.6045 12.4099 21.6001 13.4582 22.3006C14.5066 23.0011 15.7391 23.375 17 23.375C18.6902 23.3732 20.3107 22.701 21.5059 21.5059C22.701 20.3107 23.3732 18.6902 23.375 17ZM26.5625 9.03125C26.5625 8.71604 26.469 8.4079 26.2939 8.14581C26.1188 7.88372 25.8699 7.67944 25.5787 7.55882C25.2874 7.43819 24.967 7.40663 24.6578 7.46812C24.3487 7.52962 24.0647 7.68141 23.8418 7.9043C23.6189 8.12719 23.4671 8.41117 23.4056 8.72032C23.3441 9.02948 23.3757 9.34993 23.4963 9.64115C23.6169 9.93237 23.8212 10.1813 24.0833 10.3564C24.3454 10.5315 24.6535 10.625 24.9688 10.625C25.3914 10.625 25.7968 10.4571 26.0957 10.1582C26.3946 9.85932 26.5625 9.45394 26.5625 9.03125Z" fill="white" style="fill:white;fill-opacity:1;"/>
</g>
<defs>
<clipPath id="clip0_158_640">
<rect width="34" height="34" fill="white" style="fill:white;fill-opacity:1;"/>
</clipPath>
</defs>
</svg>
