<svg width="55" height="19" viewBox="0 0 55 19" fill="none" xmlns="http://www.w3.org/2000/svg">
<rect x="0.24707" width="54" height="19" rx="9.5" fill="#FF0000" style="fill:#FF0000;fill:color(display-p3 1.0000 0.0000 0.0000);fill-opacity:1;"/>
<path d="M18.9351 14H10.6671V13.52C10.9311 13.512 11.1471 13.488 11.3151 13.448C11.4831 13.408 11.6111 13.34 11.6991 13.244C11.7871 13.148 11.8471 13.012 11.8791 12.836C11.9111 12.66 11.9271 12.432 11.9271 12.152V6.608C11.9271 6.328 11.9111 6.104 11.8791 5.936C11.8551 5.76 11.8031 5.624 11.7231 5.528C11.6431 5.424 11.5271 5.356 11.3751 5.324C11.2311 5.284 11.0391 5.256 10.7991 5.24V4.76H14.9391V5.24C14.6671 5.248 14.4471 5.272 14.2791 5.312C14.1191 5.352 13.9951 5.424 13.9071 5.528C13.8191 5.632 13.7591 5.776 13.7271 5.96C13.7031 6.144 13.6911 6.388 13.6911 6.692V11.72C13.6911 12.056 13.7231 12.332 13.7871 12.548C13.8591 12.756 13.9791 12.92 14.1471 13.04C14.3151 13.152 14.5391 13.232 14.8191 13.28C15.0991 13.32 15.4471 13.34 15.8631 13.34C16.3271 13.34 16.7151 13.312 17.0271 13.256C17.3391 13.2 17.5991 13.096 17.8071 12.944C18.0231 12.784 18.1951 12.572 18.3231 12.308C18.4511 12.044 18.5591 11.7 18.6471 11.276H19.1271L18.9351 14ZM22.3897 12.032C22.3897 12.352 22.4017 12.608 22.4257 12.8C22.4497 12.992 22.4977 13.14 22.5697 13.244C22.6417 13.348 22.7457 13.42 22.8817 13.46C23.0177 13.492 23.2017 13.512 23.4337 13.52V14H19.6537V13.52C19.8777 13.512 20.0577 13.488 20.1937 13.448C20.3377 13.4 20.4457 13.328 20.5177 13.232C20.5977 13.128 20.6497 12.988 20.6737 12.812C20.7057 12.628 20.7217 12.396 20.7217 12.116V10.64C20.7217 10.176 20.7137 9.796 20.6977 9.5C20.6817 9.196 20.6617 8.988 20.6377 8.876C20.5977 8.676 20.5057 8.544 20.3617 8.48C20.2257 8.416 19.9737 8.384 19.6057 8.384V7.976L22.3897 7.52V12.032ZM20.6257 4.976C20.6257 4.712 20.7137 4.492 20.8897 4.316C21.0737 4.132 21.2937 4.04 21.5497 4.04C21.8137 4.04 22.0337 4.132 22.2097 4.316C22.3937 4.492 22.4857 4.712 22.4857 4.976C22.4857 5.232 22.3937 5.452 22.2097 5.636C22.0337 5.812 21.8137 5.9 21.5497 5.9C21.2937 5.9 21.0737 5.812 20.8897 5.636C20.7137 5.452 20.6257 5.232 20.6257 4.976ZM24.7364 9.188C24.6484 8.956 24.5644 8.772 24.4844 8.636C24.4044 8.492 24.3204 8.384 24.2324 8.312C24.1524 8.232 24.0604 8.18 23.9564 8.156C23.8604 8.132 23.7444 8.12 23.6084 8.12V7.64H27.1964V8.12C26.9964 8.12 26.8364 8.128 26.7164 8.144C26.6044 8.16 26.5164 8.184 26.4524 8.216C26.3964 8.248 26.3604 8.292 26.3444 8.348C26.3284 8.396 26.3204 8.452 26.3204 8.516C26.3204 8.62 26.3404 8.74 26.3804 8.876C26.4204 9.012 26.4684 9.148 26.5244 9.284L27.6644 12.428H27.7124L28.9964 9.296C29.0524 9.16 29.0964 9.04 29.1284 8.936C29.1604 8.824 29.1764 8.724 29.1764 8.636C29.1764 8.46 29.1164 8.332 28.9964 8.252C28.8764 8.172 28.6644 8.128 28.3604 8.12V7.64H31.0124V8.12C30.7964 8.12 30.6084 8.176 30.4484 8.288C30.2964 8.4 30.1364 8.648 29.9684 9.032L27.7244 14.12H26.6324L24.7364 9.188ZM37.2349 12.884C36.5069 13.708 35.5989 14.12 34.5109 14.12C34.0149 14.12 33.5629 14.044 33.1549 13.892C32.7549 13.732 32.4109 13.512 32.1229 13.232C31.8349 12.944 31.6109 12.604 31.4509 12.212C31.2909 11.82 31.2109 11.384 31.2109 10.904C31.2109 10.408 31.2949 9.956 31.4629 9.548C31.6309 9.132 31.8669 8.776 32.1709 8.48C32.4829 8.176 32.8469 7.94 33.2629 7.772C33.6869 7.604 34.1509 7.52 34.6549 7.52C35.5029 7.52 36.1629 7.748 36.6349 8.204C37.1069 8.66 37.3429 9.3 37.3429 10.124C37.3429 10.252 37.3229 10.332 37.2829 10.364C37.2429 10.388 37.1309 10.4 36.9469 10.4H33.0829C33.0509 10.472 33.0349 10.604 33.0349 10.796C33.0349 11.58 33.2029 12.2 33.5389 12.656C33.8829 13.112 34.3469 13.34 34.9309 13.34C35.2669 13.34 35.5989 13.264 35.9269 13.112C36.2629 12.96 36.5869 12.744 36.8989 12.464L37.2349 12.884ZM34.9069 9.728C35.2269 9.728 35.4309 9.712 35.5189 9.68C35.6149 9.64 35.6629 9.552 35.6629 9.416C35.6629 9.064 35.5629 8.776 35.3629 8.552C35.1629 8.328 34.9109 8.216 34.6069 8.216C34.2629 8.216 33.9549 8.36 33.6829 8.648C33.4189 8.928 33.2469 9.288 33.1669 9.728H34.9069Z" fill="white" style="fill:white;fill-opacity:1;"/>
<circle cx="42.7471" cy="9.5" r="1.5" fill="white" style="fill:white;fill-opacity:1;"/>
</svg>
