<svg width="256" height="209" viewBox="0 0 256 209" fill="none" xmlns="http://www.w3.org/2000/svg">
<g clip-path="url(#clip0_352_649)">
<path d="M252.75 189.95L141.98 70C139.23 67.03 135.61 65.03 131.69 64.23C130.91 64.07 130.37 63.35 130.37 62.56V54.16C130.37 49.75 128.54 45.55 125.32 42.54L116.6 34.39C113.35 31.35 111.5 27.1 111.5 22.65V21.68C111.5 14.57 115.88 7.96998 122.65 5.79998C130.03 3.42998 137.77 6.67998 141.46 13.01L142.63 15.02C143.97 17.31 146.04 19.16 148.59 19.93C151.26 20.73 154.07 20.42 156.47 19.05C157.53 18.45 158.13 17.19 157.75 16.03C157.22 14.44 155.42 13.83 154.07 14.63C152.91 15.32 151.56 15.51 150.26 15.17C148.95 14.83 147.86 14.01 147.19 12.84L146.12 11C142.43 4.67998 135.88 0.359983 128.57 0.0199828C116.49 -0.540017 106.48 9.12998 106.48 21.09V22.65C106.48 28.49 108.9 34.07 113.17 38.06L121.89 46.21C124.09 48.27 125.34 51.14 125.34 54.16V62.55C125.34 63.35 124.8 64.07 124.02 64.23C120.08 65.02 116.43 67.03 113.67 70.01L2.90022 189.94C-0.00977898 193.09 -0.789779 197.46 0.820221 201.42C2.54022 205.62 6.82022 208.2 11.3602 208.2H106.52C107.87 208.2 108.97 207.14 109.03 205.79C109.05 205.35 109.4 194.84 102.32 184.14C98.4402 178.27 95.5002 173.3 93.0702 168.49L85.0202 152.5C84.4902 151.44 84.2302 150.24 84.4302 149.07C84.7502 147.19 85.9302 145.7 87.5902 144.96C90.2402 143.81 93.4402 145.01 94.6602 147.54L99.3902 157.23C100.34 159.21 102.64 160.13 104.77 159.26C106.36 158.6 107.33 156.96 107.33 155.23V109.17C107.33 106.24 109.43 103.59 112.34 103.28C114.41 103.06 116.39 103.98 117.6 105.74C118.25 106.69 118.54 107.85 118.54 109V131.87V146.57C118.54 147.96 119.67 149.08 121.05 149.08C122.43 149.08 123.56 147.95 123.56 146.57V132.11C123.56 129.98 125.07 128.03 127.18 127.77C128.48 127.61 129.74 128.05 130.63 128.93C131.41 129.72 131.85 130.79 131.85 131.87V146.57C131.85 147.96 132.98 149.08 134.36 149.08C135.74 149.08 136.87 147.95 136.87 146.57V137.56C136.87 136.1 137.5 134.65 138.7 133.81C140.57 132.49 142.92 132.82 144.37 134.28C145.19 135.09 145.65 136.19 145.65 137.37V146.57C145.65 147.96 146.78 149.08 148.16 149.08C149.54 149.08 150.67 147.95 150.67 146.57V143.71C150.67 141.68 152.11 139.82 154.13 139.57C155.37 139.42 156.56 139.84 157.42 140.7C158.17 141.45 158.58 142.45 158.58 143.51V160.24C158.58 168.58 157.69 176.89 155.94 185.04L151.6 205.17C151.44 205.91 151.62 206.69 152.1 207.28C152.58 207.87 153.3 208.21 154.05 208.21H244.27C248.8 208.21 253.09 205.63 254.8 201.43C256.42 197.48 255.63 193.1 252.72 189.96L252.75 189.95ZM249.99 199.92C248.99 201.96 246.83 203.17 244.56 203.17H159.23C158.17 203.17 157.38 202.19 157.6 201.16L160.85 186.08C162.68 177.59 163.6 168.93 163.6 160.24V143.82C163.6 141.62 162.94 139.43 161.53 137.74C159.79 135.66 157.3 134.5 154.62 134.5C153.46 134.5 152.36 134.72 151.34 135.12C150.91 135.29 150.4 135.06 150.27 134.61C149.83 133.14 149.03 131.8 147.92 130.71C146.18 128.95 143.75 127.94 141.26 127.94C139.84 127.94 138.49 128.26 137.28 128.82C136.85 129.02 136.36 128.83 136.18 128.39C135.72 127.28 135.05 126.25 134.19 125.37C132.46 123.64 130.16 122.69 127.71 122.69C126.64 122.69 125.62 122.87 124.66 123.21C124.12 123.4 123.56 123 123.56 122.43V109.25C123.56 106.6 122.75 103.97 121.03 101.96C118.66 99.19 115.16 97.83 111.52 98.31C106.17 99.01 102.31 103.83 102.31 109.23V151.74L99.1802 145.34C97.4602 141.77 93.7702 139.47 89.7802 139.47C88.3302 139.47 86.9202 139.77 85.5602 140.36C82.6502 141.65 80.5202 144.12 79.6802 147.25C78.9902 149.82 79.4102 152.57 80.6102 154.95L88.5702 170.75C91.0902 175.74 94.1202 180.88 98.1102 186.92C101.67 192.3 103.08 197.67 103.64 201.27C103.8 202.28 103.02 203.19 101.99 203.19H11.0902C8.82022 203.19 6.65022 201.98 5.66022 199.94C4.55022 197.67 4.91022 195.2 6.60022 193.37L117.36 73.43C120.09 70.48 123.8 68.86 127.83 68.86C131.86 68.86 135.57 70.48 138.29 73.43L249.06 193.38C250.75 195.2 251.11 197.68 250 199.95L249.99 199.92Z" fill="#60A7A1" style="fill:#60A7A1;fill:color(display-p3 0.3765 0.6549 0.6314);fill-opacity:1;"/>
</g>
<defs>
<clipPath id="clip0_352_649">
<rect width="255.65" height="208.2" fill="white" style="fill:white;fill-opacity:1;"/>
</clipPath>
</defs>
</svg>
