<svg width="32" height="33" viewBox="0 0 32 33" fill="none" xmlns="http://www.w3.org/2000/svg">
<g clip-path="url(#clip0_352_425)">
<path d="M20.5488 18.6675C20.6872 18.5754 20.8465 18.5192 21.0122 18.5042C21.1779 18.4891 21.3447 18.5156 21.4975 18.5813L27.3925 21.2225C27.5912 21.3074 27.757 21.4544 27.8651 21.6414C27.9733 21.8285 28.018 22.0455 27.9925 22.26C27.7983 23.7113 27.0836 25.0427 25.9813 26.0066C24.8791 26.9704 23.4642 27.5012 22 27.5C17.4913 27.5 13.1673 25.709 9.97919 22.5208C6.79107 19.3327 5 15.0087 5 10.5C4.99888 9.03579 5.5296 7.62097 6.49345 6.5187C7.45731 5.41643 8.78869 4.70174 10.24 4.50753C10.4545 4.48205 10.6716 4.52673 10.8586 4.63489C11.0456 4.74305 11.1926 4.90887 11.2775 5.10753L13.9188 11.0075C13.9836 11.1591 14.0101 11.3243 13.9957 11.4885C13.9813 11.6527 13.9265 11.8108 13.8363 11.9488L11.165 15.125C11.0702 15.268 11.0142 15.4331 11.0024 15.6042C10.9906 15.7754 11.0233 15.9466 11.0975 16.1013C12.1313 18.2175 14.3188 20.3788 16.4413 21.4025C16.5967 21.4764 16.7688 21.5084 16.9404 21.4955C17.112 21.4826 17.2773 21.4251 17.42 21.3288L20.5488 18.6675Z" stroke="black" stroke-opacity="0.53" style="stroke:black;stroke-opacity:0.53;" stroke-width="2" stroke-linecap="round" stroke-linejoin="round"/>
</g>
<defs>
<clipPath id="clip0_352_425">
<rect width="32" height="32" fill="white" style="fill:white;fill-opacity:1;" transform="translate(0 0.5)"/>
</clipPath>
</defs>
</svg>
