<svg width="34" height="34" viewBox="0 0 34 34" fill="none" xmlns="http://www.w3.org/2000/svg">
<g clip-path="url(#clip0_158_646)">
<path d="M31.122 9.23313C30.9968 8.74351 30.757 8.29067 30.4224 7.91195C30.0878 7.53324 29.668 7.23951 29.1975 7.05501C24.6447 5.29657 17.3984 5.31251 17 5.31251C16.6016 5.31251 9.35531 5.29657 4.8025 7.05501C4.33203 7.23951 3.91217 7.53324 3.57756 7.91195C3.24296 8.29067 3.00319 8.74351 2.87805 9.23313C2.53406 10.5586 2.125 12.9811 2.125 17C2.125 21.0189 2.53406 23.4414 2.87805 24.7669C3.003 25.2567 3.24268 25.7099 3.5773 26.0888C3.91192 26.4678 4.33188 26.7617 4.8025 26.9463C9.16406 28.6291 15.9906 28.6875 16.9123 28.6875H17.0877C18.0094 28.6875 24.8399 28.6291 29.1975 26.9463C29.6681 26.7617 30.0881 26.4678 30.4227 26.0888C30.7573 25.7099 30.997 25.2567 31.122 24.7669C31.4659 23.4388 31.875 21.0189 31.875 17C31.875 12.9811 31.4659 10.5586 31.122 9.23313ZM21.5448 17.4423L15.1698 21.6923C15.0898 21.7457 14.9968 21.7763 14.9007 21.781C14.8046 21.7856 14.7091 21.7641 14.6243 21.7187C14.5394 21.6733 14.4686 21.6057 14.4192 21.5232C14.3697 21.4406 14.3437 21.3462 14.3438 21.25V12.75C14.3437 12.6538 14.3697 12.5594 14.4192 12.4768C14.4686 12.3943 14.5394 12.3267 14.6243 12.2813C14.7091 12.2359 14.8046 12.2144 14.9007 12.219C14.9968 12.2237 15.0898 12.2543 15.1698 12.3077L21.5448 16.5577C21.6177 16.6062 21.6775 16.672 21.7188 16.7491C21.7601 16.8263 21.7818 16.9125 21.7818 17C21.7818 17.0875 21.7601 17.1737 21.7188 17.2509C21.6775 17.328 21.6177 17.3938 21.5448 17.4423Z" fill="white" style="fill:white;fill-opacity:1;"/>
</g>
<defs>
<clipPath id="clip0_158_646">
<rect width="34" height="34" fill="white" style="fill:white;fill-opacity:1;"/>
</clipPath>
</defs>
</svg>
